# xmcd
#
# Track frame offsets: 
#        150
#        11925
#        23637
#        36175
#        47662
#        58725
#        69425
#        81487
#        94087
#        107200
#        121925
#        136275
#        151712
#        165587
#        177950
#        192350
#        205562
#        219150
#        237112
#        250837
#        266612
#        279625
#        294437
#
# Disc length: 4088 seconds
#
# Revision: 2
# Processed by: cddbd v1.5.2PL0 Copyright (c) Steve Scherf et al.
# Submitted via: ExactAudioCopyFreeDBPlugin 1.0
#
DISCID=400ff617
DTITLE=Johnny Duncan - It Couldn't Have Been Any Better
DYEAR=2002
DGENRE=Country
TTITLE0=Johnny Duncan and Jude Stearns - Jackson Ain't A Very Big Town
TTITLE1=When She Touches Me
TTITLE2=You're Gonna Need A Man
TTITLE3=Let Me Go (Set Me Free)
TTITLE4=There's Something About A Lady
TTITLE5=Baby's Smile, Woman's Kiss
TTITLE6=Fools
TTITLE7=Sweet Country Woman
TTITLE8=Talkin' With My Lady
TTITLE9=Johnny Duncan and Janie Fricke - Jo And The Cowboy
TTITLE10=Johnny Duncan and Janie Fricke - Stranger
TTITLE11=Johnny Duncan and Janie Fricke - Thinkin' Of A Rendezvous
TTITLE12=It Couldn't Have Been Any Better
TTITLE13=A Song In The Night
TTITLE14=Johnny Duncan and Janie Fricke - Come A Little Bit Closer
TTITLE15=She Can Put Her Shoes Under My Bed (Anytime)
TTITLE16=Hello Mexico (And Adios Baby To You)
TTITLE17=Slow Dancing
TTITLE18=The Lady In The Blue Mercedes
TTITLE19=Play Another Slow Song
TTITLE20=I'm Gonna Love You Tonight (In My Dreams)
TTITLE21=Johnny Duncan and Janie Fricke - He's Out Of My Life
TTITLE22=Acapulco
EXTD=
EXTT0=
EXTT1=
EXTT2=
EXTT3=
EXTT4=
EXTT5=
EXTT6=
EXTT7=
EXTT8=
EXTT9=
EXTT10=
EXTT11=
EXTT12=
EXTT13=
EXTT14=
EXTT15=
EXTT16=
EXTT17=
EXTT18=
EXTT19=
EXTT20=
EXTT21=
EXTT22=
PLAYORDER=
